<svg width="100" height="88" viewBox="0 0 100 88" fill="none" xmlns="http://www.w3.org/2000/svg">
<path d="M29.9401 19.2786C29.9401 30.9152 38.2768 38.7309 50.0868 38.7309C61.7231 38.7309 70.0597 30.9152 70.0597 19.2786C70.0597 7.81567 61.7231 0 50.0868 0C38.2768 0 29.9401 7.81567 29.9401 19.2786Z" fill="#FF5C39"/>
<path d="M20.1468 87.5911C8.33656 87.5911 0 79.7756 0 68.1388C0 56.6759 8.33656 48.8605 20.1468 48.8605C31.7832 48.8605 40.1199 56.6759 40.1199 68.1388C40.1199 79.7756 31.7832 87.5911 20.1468 87.5911Z" fill="#FF5C39"/>
<path d="M59.8801 68.1388C59.8801 79.7756 68.2167 87.5911 80.0271 87.5911C91.6634 87.5911 100 79.7756 100 68.1388C100 56.6759 91.6634 48.8605 80.0271 48.8605C68.2167 48.8605 59.8801 56.6759 59.8801 68.1388Z" fill="#FF5C39"/>
</svg>
